<svg xmlns="http://www.w3.org/2000/svg" xmlns:xlink="http://www.w3.org/1999/xlink" width="2304" zoomAndPan="magnify" viewBox="0 0 1728 1295.99994" height="1728" preserveAspectRatio="xMidYMid meet" version="1.0"><defs><filter x="0%" y="0%" width="100%" height="100%" id="a9e44a65c9"><feColorMatrix values="0 0 0 0 1 0 0 0 0 1 0 0 0 0 1 0 0 0 1 0" color-interpolation-filters="sRGB"/></filter><mask id="fcd5b0f7bc"><g filter="url(#a9e44a65c9)"><rect x="-172.8" width="2073.6" fill="#000000" y="-129.599994" height="1555.199927" fill-opacity="0.97"/></g></mask><clipPath id="69f8172bef"><path d="M 0 0 L 136 0 L 136 1296 L 0 1296 Z M 0 0 " clip-rule="nonzero"/></clipPath><clipPath id="863b288ace"><path d="M 0 0 L 242 0 L 242 1296 L 0 1296 Z M 0 0 " clip-rule="nonzero"/></clipPath><clipPath id="ee0e0ec040"><path d="M 0 0 L 344 0 L 344 1296 L 0 1296 Z M 0 0 " clip-rule="nonzero"/></clipPath><clipPath id="b485119760"><path d="M 0 0 L 448.800781 0 L 448.800781 1296 L 0 1296 Z M 0 0 " clip-rule="nonzero"/></clipPath><clipPath id="aa23603f56"><rect x="0" width="449" y="0" height="1296"/></clipPath><mask id="0bc73bacaa"><g filter="url(#a9e44a65c9)"><rect x="-172.8" width="2073.6" fill="#000000" y="-129.599994" height="1555.199927" fill-opacity="0.97"/></g></mask><clipPath id="afc10f74e7"><path d="M 0.160156 0 L 472 0 L 472 886.308594 L 0.160156 886.308594 Z M 0.160156 0 " clip-rule="nonzero"/></clipPath><clipPath id="e239c4b8e9"><path d="M 104 0 L 472 0 L 472 886.308594 L 104 886.308594 Z M 104 0 " clip-rule="nonzero"/></clipPath><clipPath id="6e2a32350b"><path d="M 208 0 L 472 0 L 472 886.308594 L 208 886.308594 Z M 208 0 " clip-rule="nonzero"/></clipPath><clipPath id="e0b3e89300"><path d="M 312 0 L 472 0 L 472 886.308594 L 312 886.308594 Z M 312 0 " clip-rule="nonzero"/></clipPath><clipPath id="2978b18d6e"><rect x="0" width="472" y="0" height="889"/></clipPath></defs><rect x="-172.8" width="2073.6" fill="#ffffff" y="-129.599994" height="1555.199927" fill-opacity="1"/><rect x="-172.8" width="2073.6" fill="#263777" y="-129.599994" height="1555.199927" fill-opacity="1"/><g mask="url(#fcd5b0f7bc)"><g transform="matrix(1, 0, 0, 1, 0, 0.000000000000148075)"><g clip-path="url(#aa23603f56)"><g clip-path="url(#69f8172bef)"><path fill="#d9232a" d="M 71.105469 1295.832031 L 70.820312 959.753906 C 70.855469 940.4375 63.390625 922.355469 49.808594 908.746094 C 36.222656 895.136719 18.15625 887.640625 -1.074219 887.640625 L -17.035156 887.640625 C -132.011719 887.640625 -240.144531 842.914062 -321.527344 761.691406 C -402.902344 680.480469 -447.847656 572.433594 -448.074219 457.460938 L -448.054688 0.0625 L -383.265625 0.0664062 L -383.285156 457.394531 C -382.890625 658.882812 -218.589844 822.859375 -17.035156 822.859375 L -1.074219 822.859375 C 35.480469 822.859375 69.835938 837.105469 95.660156 862.976562 C 121.484375 888.847656 135.671875 923.226562 135.605469 959.78125 L 135.890625 1295.773438 Z M 71.105469 1295.832031 " fill-opacity="1" fill-rule="nonzero"/></g><g clip-path="url(#863b288ace)"><path fill="#791b1e" d="M 176.828125 1295.941406 L 175.417969 958.292969 C 175.066406 862.171875 96.597656 783.984375 0.492188 783.984375 L -6.28125 783.984375 C -192.261719 783.984375 -343.878906 632.679688 -344.269531 446.703125 L -344.300781 0.0664062 L -279.515625 0.0585938 L -279.480469 446.632812 C -279.164062 596.894531 -156.605469 719.199219 -6.277344 719.199219 L 0.496094 719.199219 C 132.195312 719.199219 239.726562 826.34375 240.207031 958.035156 L 241.617188 1295.664062 Z M 176.828125 1295.941406 " fill-opacity="1" fill-rule="nonzero"/></g><g clip-path="url(#ee0e0ec040)"><path fill="#00a3da" d="M 343.769531 1295.8125 L 278.984375 1295.796875 L 279.0625 960.011719 C 279.328125 885.304688 250.476562 815.121094 197.816406 762.273438 C 145.160156 709.429688 75.078125 680.324219 0.476562 680.324219 C -131.03125 680.324219 -238.367188 573.335938 -238.796875 441.832031 L -239.46875 0.113281 L -174.683594 0.0117188 L -174.003906 441.675781 C -173.691406 537.519531 -95.417969 615.539062 0.480469 615.539062 C 92.433594 615.539062 178.816406 651.410156 243.71875 716.542969 C 308.617188 781.679688 344.183594 868.1875 343.851562 960.136719 Z M 343.769531 1295.8125 " fill-opacity="1" fill-rule="nonzero"/></g><g clip-path="url(#b485119760)"><path fill="#3da447" d="M 383.371094 1295.832031 L 383.089844 959.683594 C 383.269531 857.367188 343.597656 761.21875 271.375 688.863281 C 199.148438 616.511719 103.074219 576.667969 0.84375 576.667969 C -73.703125 576.667969 -134.5625 516.019531 -134.828125 441.476562 L -135.691406 0.128906 L -70.902344 0 L -70.039062 441.296875 C -69.902344 480.195312 -38.101562 511.878906 0.847656 511.878906 C 120.40625 511.878906 232.765625 558.480469 317.226562 643.09375 C 401.691406 727.710938 448.089844 840.15625 447.878906 959.710938 L 448.164062 1295.773438 Z M 383.371094 1295.832031 " fill-opacity="1" fill-rule="nonzero"/></g></g></g></g><g mask="url(#0bc73bacaa)"><g transform="matrix(1, 0, 0, 1, 1256, 0.000000000000148075)"><g clip-path="url(#2978b18d6e)"><g clip-path="url(#afc10f74e7)"><path fill="#d9232a" d="M 519.570312 886.140625 L 519.285156 550.0625 C 519.320312 530.75 511.859375 512.664062 498.273438 499.058594 C 484.6875 485.445312 466.621094 477.953125 447.390625 477.953125 L 431.429688 477.953125 C 316.453125 477.953125 208.320312 433.222656 126.941406 352.003906 C 45.5625 270.792969 0.617188 162.742188 0.394531 47.769531 L 0.410156 -409.628906 L 65.199219 -409.625 L 65.179688 47.707031 C 65.578125 249.195312 229.875 413.167969 431.429688 413.167969 L 447.390625 413.167969 C 483.949219 413.167969 518.300781 427.414062 544.125 453.285156 C 569.949219 479.15625 584.136719 513.539062 584.070312 550.089844 L 584.355469 886.082031 Z M 519.570312 886.140625 " fill-opacity="1" fill-rule="nonzero"/></g><g clip-path="url(#e239c4b8e9)"><path fill="#791b1e" d="M 625.292969 886.25 L 623.882812 548.601562 C 623.53125 452.480469 545.0625 374.296875 448.957031 374.296875 L 442.1875 374.296875 C 256.207031 374.296875 104.585938 222.988281 104.195312 37.011719 L 104.164062 -409.625 L 168.949219 -409.628906 L 168.984375 36.941406 C 169.300781 187.207031 291.859375 309.507812 442.1875 309.507812 L 448.960938 309.507812 C 580.660156 309.507812 688.191406 416.652344 688.671875 548.347656 L 690.085938 885.976562 Z M 625.292969 886.25 " fill-opacity="1" fill-rule="nonzero"/></g><g clip-path="url(#6e2a32350b)"><path fill="#00a3da" d="M 792.234375 886.121094 L 727.449219 886.105469 L 727.527344 550.320312 C 727.792969 475.613281 698.941406 405.429688 646.28125 352.582031 C 593.625 299.738281 523.546875 270.636719 448.941406 270.636719 C 317.433594 270.636719 210.097656 163.644531 209.671875 32.140625 L 208.996094 -409.578125 L 273.785156 -409.675781 L 274.460938 31.988281 C 274.773438 127.828125 353.046875 205.847656 448.945312 205.847656 C 540.898438 205.847656 627.28125 241.71875 692.183594 306.855469 C 757.085938 371.988281 792.648438 458.496094 792.316406 550.445312 Z M 792.234375 886.121094 " fill-opacity="1" fill-rule="nonzero"/></g><g clip-path="url(#e0b3e89300)"><path fill="#3da447" d="M 831.839844 886.140625 L 831.554688 549.992188 C 831.734375 447.675781 792.0625 351.527344 719.839844 279.175781 C 647.613281 206.824219 551.542969 166.976562 449.308594 166.976562 C 374.761719 166.976562 313.902344 106.332031 313.636719 31.785156 L 312.773438 -409.5625 L 377.5625 -409.691406 L 378.425781 31.609375 C 378.5625 70.503906 410.363281 102.191406 449.3125 102.191406 C 568.871094 102.191406 681.230469 148.789062 765.695312 233.402344 C 850.15625 318.019531 896.554688 430.464844 896.34375 550.019531 L 896.628906 886.085938 Z M 831.839844 886.140625 " fill-opacity="1" fill-rule="nonzero"/></g></g></g></g></svg>