<svg xmlns="http://www.w3.org/2000/svg" xmlns:xlink="http://www.w3.org/1999/xlink" width="2304" zoomAndPan="magnify" viewBox="0 0 1728 1295.99994" height="1728" preserveAspectRatio="xMidYMid meet" version="1.0"><defs><clipPath id="22c4fb2e08"><path d="M 520 486 L 1209.898438 486 L 1209.898438 810 L 520 810 Z M 520 486 " clip-rule="nonzero"/></clipPath></defs><g clip-path="url(#22c4fb2e08)"><path fill="#ffffff" d="M 664.703125 494.054688 L 527.867188 630.890625 C 518.398438 640.359375 518.398438 655.9375 527.867188 665.40625 L 664.398438 801.933594 C 673.867188 811.402344 689.441406 811.402344 698.910156 801.933594 C 708.378906 792.464844 708.378906 776.886719 698.910156 767.417969 L 604.226562 672.429688 L 1185.160156 672.429688 C 1198.601562 672.429688 1209.59375 661.433594 1209.59375 647.996094 C 1209.59375 634.554688 1198.601562 623.558594 1185.160156 623.558594 L 604.226562 623.558594 L 699.214844 528.570312 C 704.101562 523.683594 706.242188 517.574219 706.242188 511.160156 C 706.242188 504.746094 703.796875 498.636719 699.214844 493.75 C 689.746094 484.589844 674.171875 484.589844 664.703125 494.054688 Z M 664.703125 494.054688 " fill-opacity="1" fill-rule="nonzero"/></g></svg>